<mxfile host="app.diagrams.net" modified="2024-08-13T09:21:27.147Z" agent="Mozilla/5.0 (Windows NT 10.0; Win64; x64; rv:129.0) Gecko/20100101 Firefox/129.0" etag="y4QRlqC2B7A-MPAQUKFR" version="24.6.4" type="github">
  <diagram name="Page-1" id="2YBvvXClWsGukQMizWep">
    <mxGraphModel dx="2675" dy="1068" grid="1" gridSize="10" guides="1" tooltips="1" connect="1" arrows="1" fold="1" page="1" pageScale="1" pageWidth="850" pageHeight="1100" math="0" shadow="0">
      <root>
        <mxCell id="0" />
        <mxCell id="1" parent="0" />
        <mxCell id="SFJ3QcxyOrrxot0OLjZ5-19" value="" style="rounded=1;whiteSpace=wrap;html=1;fillColor=#dae8fc;strokeColor=#6c8ebf;" vertex="1" parent="1">
          <mxGeometry x="20" y="680" width="960" height="830" as="geometry" />
        </mxCell>
        <mxCell id="SFJ3QcxyOrrxot0OLjZ5-18" value="" style="rounded=1;whiteSpace=wrap;html=1;fillColor=#dae8fc;strokeColor=#6c8ebf;" vertex="1" parent="1">
          <mxGeometry x="-10" y="50" width="800" height="560" as="geometry" />
        </mxCell>
        <mxCell id="SFJ3QcxyOrrxot0OLjZ5-4" style="edgeStyle=orthogonalEdgeStyle;rounded=0;orthogonalLoop=1;jettySize=auto;html=1;" edge="1" parent="1" source="SFJ3QcxyOrrxot0OLjZ5-2" target="SFJ3QcxyOrrxot0OLjZ5-3">
          <mxGeometry relative="1" as="geometry" />
        </mxCell>
        <mxCell id="SFJ3QcxyOrrxot0OLjZ5-7" style="edgeStyle=orthogonalEdgeStyle;rounded=0;orthogonalLoop=1;jettySize=auto;html=1;" edge="1" parent="1" source="SFJ3QcxyOrrxot0OLjZ5-2" target="SFJ3QcxyOrrxot0OLjZ5-5">
          <mxGeometry relative="1" as="geometry" />
        </mxCell>
        <mxCell id="SFJ3QcxyOrrxot0OLjZ5-2" value="IFCSUM&lt;br&gt;&lt;br&gt;mft-test.kuehne-nagel.com" style="whiteSpace=wrap;html=1;shape=mxgraph.basic.document;fillColor=#d5e8d4;strokeColor=#82b366;" vertex="1" parent="1">
          <mxGeometry x="40" y="320" width="200" height="70" as="geometry" />
        </mxCell>
        <mxCell id="SFJ3QcxyOrrxot0OLjZ5-3" value="Copy to\\tab.dom\tbn-dfs\Acc\B2B\data\AS2_KUHNE_NAGEL\CopyOfReceivedIfcSum" style="whiteSpace=wrap;html=1;shape=mxgraph.basic.document" vertex="1" parent="1">
          <mxGeometry x="110" y="450" width="400" height="100" as="geometry" />
        </mxCell>
        <mxCell id="SFJ3QcxyOrrxot0OLjZ5-5" value="https://container-webapi.acc.tabaknatie.be/Kuhne-Nagel/UpdateSummary" style="ellipse;shape=cloud;whiteSpace=wrap;html=1;fillColor=#f8cecc;strokeColor=#b85450;" vertex="1" parent="1">
          <mxGeometry x="10" y="70" width="620" height="190" as="geometry" />
        </mxCell>
        <mxCell id="SFJ3QcxyOrrxot0OLjZ5-10" style="edgeStyle=orthogonalEdgeStyle;rounded=0;orthogonalLoop=1;jettySize=auto;html=1;" edge="1" parent="1" source="SFJ3QcxyOrrxot0OLjZ5-8" target="SFJ3QcxyOrrxot0OLjZ5-9">
          <mxGeometry relative="1" as="geometry" />
        </mxCell>
        <mxCell id="SFJ3QcxyOrrxot0OLjZ5-12" style="edgeStyle=orthogonalEdgeStyle;rounded=0;orthogonalLoop=1;jettySize=auto;html=1;" edge="1" parent="1" source="SFJ3QcxyOrrxot0OLjZ5-8" target="SFJ3QcxyOrrxot0OLjZ5-11">
          <mxGeometry relative="1" as="geometry" />
        </mxCell>
        <mxCell id="SFJ3QcxyOrrxot0OLjZ5-8" value="IFTSTA&lt;br&gt;\\tab.dom\tbn-dfs\Acc\B2B\data\AS2_KUHNE_NAGEL\Send\" style="whiteSpace=wrap;html=1;shape=mxgraph.basic.document" vertex="1" parent="1">
          <mxGeometry x="60" y="910" width="390" height="120" as="geometry" />
        </mxCell>
        <mxCell id="SFJ3QcxyOrrxot0OLjZ5-9" value="https://container-webapi.acc.tabaknatie.be/Kuhne-Nagel/UpdateBookingConfirmationAnswer" style="ellipse;shape=cloud;whiteSpace=wrap;html=1;fillColor=#f8cecc;strokeColor=#b85450;" vertex="1" parent="1">
          <mxGeometry x="440" y="680" width="390" height="190" as="geometry" />
        </mxCell>
        <mxCell id="SFJ3QcxyOrrxot0OLjZ5-11" value="Copy to \\tab.dom\tbn-dfs\ACC\B2B\data\AS2_KUHNE_NAGEL\SftpSuccess" style="whiteSpace=wrap;html=1;shape=mxgraph.basic.document" vertex="1" parent="1">
          <mxGeometry x="540" y="920" width="400" height="100" as="geometry" />
        </mxCell>
        <mxCell id="SFJ3QcxyOrrxot0OLjZ5-16" style="edgeStyle=orthogonalEdgeStyle;rounded=0;orthogonalLoop=1;jettySize=auto;html=1;" edge="1" parent="1" source="SFJ3QcxyOrrxot0OLjZ5-13" target="SFJ3QcxyOrrxot0OLjZ5-15">
          <mxGeometry relative="1" as="geometry" />
        </mxCell>
        <mxCell id="SFJ3QcxyOrrxot0OLjZ5-13" value="SFTP&lt;br&gt;mft-test.kuehne-nagel.com" style="whiteSpace=wrap;html=1;shape=mxgraph.basic.document;fillColor=#d5e8d4;strokeColor=#82b366;" vertex="1" parent="1">
          <mxGeometry x="280" y="1090" width="400" height="100" as="geometry" />
        </mxCell>
        <mxCell id="SFJ3QcxyOrrxot0OLjZ5-14" style="edgeStyle=orthogonalEdgeStyle;rounded=0;orthogonalLoop=1;jettySize=auto;html=1;entryX=0;entryY=0.5;entryDx=0;entryDy=0;entryPerimeter=0;" edge="1" parent="1" source="SFJ3QcxyOrrxot0OLjZ5-8" target="SFJ3QcxyOrrxot0OLjZ5-13">
          <mxGeometry relative="1" as="geometry" />
        </mxCell>
        <mxCell id="SFJ3QcxyOrrxot0OLjZ5-15" value="https://reason-codes-webapi.acc.tabaknatie.be/ReasonCodes/ContainerMilestoneMessage/MilestoneSend?fileNameIftsta" style="ellipse;shape=cloud;whiteSpace=wrap;html=1;fillColor=#f8cecc;strokeColor=#b85450;" vertex="1" parent="1">
          <mxGeometry x="255" y="1240" width="450" height="260" as="geometry" />
        </mxCell>
        <mxCell id="SFJ3QcxyOrrxot0OLjZ5-25" style="edgeStyle=orthogonalEdgeStyle;rounded=0;orthogonalLoop=1;jettySize=auto;html=1;" edge="1" parent="1" source="SFJ3QcxyOrrxot0OLjZ5-22" target="SFJ3QcxyOrrxot0OLjZ5-24">
          <mxGeometry relative="1" as="geometry" />
        </mxCell>
        <mxCell id="SFJ3QcxyOrrxot0OLjZ5-22" value="&lt;font style=&quot;font-size: 24px;&quot;&gt;TRIS&lt;/font&gt;" style="shape=umlActor;verticalLabelPosition=bottom;verticalAlign=top;html=1;outlineConnect=0;" vertex="1" parent="1">
          <mxGeometry x="-600" y="970" width="80" height="120" as="geometry" />
        </mxCell>
        <mxCell id="SFJ3QcxyOrrxot0OLjZ5-26" style="edgeStyle=orthogonalEdgeStyle;rounded=0;orthogonalLoop=1;jettySize=auto;html=1;" edge="1" parent="1" source="SFJ3QcxyOrrxot0OLjZ5-24" target="SFJ3QcxyOrrxot0OLjZ5-8">
          <mxGeometry relative="1" as="geometry" />
        </mxCell>
        <mxCell id="SFJ3QcxyOrrxot0OLjZ5-24" value="NSB ReasonCodes" style="ellipse;shape=cloud;whiteSpace=wrap;html=1;" vertex="1" parent="1">
          <mxGeometry x="-410" y="940" width="310" height="160" as="geometry" />
        </mxCell>
        <mxCell id="SFJ3QcxyOrrxot0OLjZ5-28" style="edgeStyle=orthogonalEdgeStyle;rounded=0;orthogonalLoop=1;jettySize=auto;html=1;" edge="1" parent="1" source="SFJ3QcxyOrrxot0OLjZ5-29" target="SFJ3QcxyOrrxot0OLjZ5-30">
          <mxGeometry relative="1" as="geometry" />
        </mxCell>
        <mxCell id="SFJ3QcxyOrrxot0OLjZ5-29" value="&lt;font style=&quot;font-size: 24px;&quot;&gt;Kuhne&amp;amp;Nagel&lt;/font&gt;" style="shape=umlActor;verticalLabelPosition=bottom;verticalAlign=top;html=1;outlineConnect=0;" vertex="1" parent="1">
          <mxGeometry x="-600" y="320" width="80" height="120" as="geometry" />
        </mxCell>
        <mxCell id="SFJ3QcxyOrrxot0OLjZ5-31" style="edgeStyle=orthogonalEdgeStyle;rounded=0;orthogonalLoop=1;jettySize=auto;html=1;" edge="1" parent="1" source="SFJ3QcxyOrrxot0OLjZ5-30" target="SFJ3QcxyOrrxot0OLjZ5-2">
          <mxGeometry relative="1" as="geometry" />
        </mxCell>
        <mxCell id="SFJ3QcxyOrrxot0OLjZ5-30" value="http://arc.test.tabaknatie.be/pub/ReceiveMDN.rsb" style="ellipse;shape=cloud;whiteSpace=wrap;html=1;" vertex="1" parent="1">
          <mxGeometry x="-480" y="240" width="420" height="210" as="geometry" />
        </mxCell>
      </root>
    </mxGraphModel>
  </diagram>
</mxfile>
